<svg xmlns="http://www.w3.org/2000/svg" fill-rule="evenodd" stroke-linejoin="round" stroke-width="28.2" preserveAspectRatio="xMidYMid" version="1.2" viewBox="0 0 1152 1152"><path fill="#FFF" d="M977.5 218.3C963.5 133.3 764.6 66 521.2 66 277.7 66 78.7 133.3 64.8 218.3H64v704.8h.8c13.9 85 213 152.4 456.4 152.4 243.4 0 442.4-67.4 456.3-152.4h.8V218.3h-.8Z"/><path fill="none" d="M64 65.9h914.5v1009.7H64z"/><path fill="#545E73" d="M959.2 232.3c-13.3-81.7-204.3-146.4-438-146.4S96.4 150.6 83.1 232.3h-.8v676.5h.8C96.4 990.4 287.5 1055 521.2 1055c233.7 0 424.7-64.7 438-146.3h.8V232.3h-.8Z"/><path fill="none" d="M82.2 85.8h878v969.5h-878z"/><path fill="#3479F3" d="M521.2 835.6c-242.4 0-439-69.6-439-155.5v228.7h.9C96.4 990.4 287.5 1055 521.2 1055c233.7 0 424.7-64.7 438-146.3h.8V680c0 86-196.5 155.5-438.8 155.5Z"/><path fill="none" d="M82.2 680.1h878v375.2h-878z"/><path fill="#38454F" d="M82.3 671v9.1c0-3 .3-6 .8-9.1h-.8Z"/><path fill="none" d="M82.2 671h1v9.3h-1z"/><path fill="#38454F" d="M959.2 671c.5 3.1.8 6.1.8 9.1V671h-.8Z"/><path fill="none" d="M959.2 671h1v9.3h-1z"/><path fill="#0E1012" d="M521.2 616.1c-242.4 0-439-69.4-439-155.2v228.4h.9c13.3 81.6 204.4 146.3 438.1 146.3 233.7 0 424.7-64.7 438-146.3h.8V460.9C960 546.7 763.5 616 521.2 616Z"/><path fill="none" d="M82.2 460.8h878v375h-878z"/><path fill="#556080" d="M82.3 451.7v9.2c0-3.1.3-6.2.8-9.2h-.8Z"/><path fill="none" d="M82.2 451.6h1v9.4h-1z"/><path fill="#556080" d="M959.2 451.7c.5 3 .8 6 .8 9.2v-9.2h-.8Z"/><path fill="none" d="M959.2 451.6h1v9.4h-1z"/><path fill="#7FE4FF" d="M960 241.4c0 28.6-18.4 53-58.8 77.7-40.4 24.7-90.7 42.4-160.7 56.8-70 14.3-138.5 21-219.3 21a1062 1062 0 0 1-219.4-21c-70-14.4-120.4-32-160.8-56.8-40.3-24.8-58.7-49.1-58.7-77.7 0-28.7 18.4-53 58.7-77.7 40.4-24.8 90.7-42.6 160.8-57A1063 1063 0 0 1 521.2 86c80.7 0 149.4 6.6 219.3 20.9 70 14.3 120.3 32 160.7 56.9 40.4 24.7 58.8 49 58.8 77.7Z"/><path fill="none" d="M82.2 85.8h878V397h-878z"/><path fill="#7A76FF" d="M521.2 396.9c-242.4 0-439-69.7-439-155.5V470h.9c13.3 81.5 204.4 146.1 438.1 146.1 233.7 0 424.7-64.6 438-146h.8V241.3c0 85.8-196.5 155.5-438.8 155.5Z"/><path fill="none" d="M82.2 241.3h878v375h-878z"/><path fill="#8697CB" d="M82.3 232.3v9.1c0-3.1.3-6.1.8-9.1h-.8Z"/><path fill="none" d="M82.2 232.2h1v9.3h-1z"/><path fill="#8697CB" d="M959.2 232.3c.5 3 .8 6 .8 9.1v-9.1h-.8Z"/><path fill="none" d="M959.2 232.2h1v9.3h-1z"/><path fill="#0E1012" d="M521.2 518.8c81.2 0 183.7-13.5 196-13.5A26.6 26.6 0 0 1 742 530c0 12.4 1.5 162.1 1.5 162.1a1109.6 1109.6 0 0 1-222.3 21.3c-81.2 0-157.3-7.8-222.5-21.4 0 0-1.5-149.6-1.5-162a26.6 26.6 0 0 1 24.7-24.7c12.4 0 118.1 13.5 199.3 13.5Zm0 414c-81.2 0-174.6-7.4-199.3-19.8-24.7-12.3-24.7-24.7-24.7-37 0-12.4 1.5-159 1.5-159a1103.4 1103.4 0 0 0 222.5 21.3c81.2 0 157.1-7.8 222.3-21.4 0 0-1.5 146.7-1.5 159 0 12.4 0 24.8-24.7 37.1-24.8 12.4-115 19.9-196 19.9Z"/><path fill="none" d="M297.2 505.2h446.4V933H297.2z"/><path fill="#F73876" d="M390.6 606a22 22 0 0 1-12-3.3 21.8 21.8 0 0 1-8.6-8.7 22.2 22.2 0 0 1-3.3-11.8c0-4.5 1-8.2 3.3-12 2-3.8 4.8-6.5 8.6-8.6a22 22 0 0 1 12-3.3c4.4 0 8 1 11.8 3.3 3.8 2 6.6 4.8 8.7 8.6 2.2 3.8 3.2 7.5 3.2 12 0 4.4-1 8-3.2 11.8a21.8 21.8 0 0 1-8.7 8.7 22.2 22.2 0 0 1-11.8 3.2Z"/><path fill="none" d="M366.7 558.3h47.7V606h-47.7z"/><path fill="#D16EA1" d="M473.8 621.5c-4.5 0-8.2-1-12-3.2a21.8 21.8 0 0 1-8.7-8.7 22.2 22.2 0 0 1-3.2-11.9 23.2 23.2 0 0 1 11.9-20.6c3.8-2.2 7.5-3.2 12-3.2 4.3 0 8 1 11.8 3.2 3.8 2.2 6.5 4.9 8.7 8.7 2.2 3.8 3.2 7.5 3.2 12 0 4.3-1 8-3.2 11.8a21.8 21.8 0 0 1-8.7 8.7 22.2 22.2 0 0 1-11.8 3.2Z"/><path fill="none" d="M450 574h47.6v47.6h-47.7z"/><path fill="#ADA2CB" d="M568.7 621.5c-4.5 0-8.2-1-12-3.2a21.8 21.8 0 0 1-8.6-8.7 22.2 22.2 0 0 1-3.2-11.9c0-4.4 1-8.1 3.2-12 2.1-3.7 4.8-6.4 8.6-8.6 3.8-2.2 7.5-3.2 12-3.2 4.4 0 8 1 11.9 3.2 3.8 2.2 6.5 4.9 8.6 8.7 2.3 3.8 3.2 7.5 3.2 12 0 4.3-1 8-3.2 11.8a21.8 21.8 0 0 1-8.6 8.7 22.2 22.2 0 0 1-11.9 3.2Z"/><path fill="none" d="M544.9 574h47.6v47.6H545z"/><path fill="#89D6F4" d="M651.9 606a22 22 0 0 1-12-3.3 21.8 21.8 0 0 1-8.6-8.7 22.2 22.2 0 0 1-3.3-11.8c0-4.5 1-8.2 3.3-12a21 21 0 0 1 8.6-8.6 22 22 0 0 1 12-3.3c4.4 0 8 1 11.8 3.3 3.8 2 6.6 4.8 8.7 8.6 2.2 3.8 3.2 7.5 3.2 12 0 4.4-1 8-3.2 11.8a21.8 21.8 0 0 1-8.7 8.7 22.2 22.2 0 0 1-11.8 3.2Z"/><path fill="none" d="M628 558.3h47.7V606H628z"/><path fill="#F73876" d="M390.6 701a22 22 0 0 1-12-3.3 21.8 21.8 0 0 1-8.6-8.6 22.2 22.2 0 0 1-3.3-11.9c0-4.5 1-8.1 3.3-12a21 21 0 0 1 8.6-8.6c3.8-2.2 7.5-3.2 12-3.2 4.4 0 8 1 11.8 3.2 3.8 2.1 6.6 4.9 8.7 8.7 2.2 3.8 3.2 7.4 3.2 12 0 4.3-1 8-3.2 11.8a21.8 21.8 0 0 1-8.7 8.6 22.2 22.2 0 0 1-11.8 3.3Z"/><path fill="none" d="M366.7 653.4h47.7V701h-47.7z"/><path fill="#ADA2CB" d="M568.7 716.5c-4.5 0-8.2-1-12-3.2a21.8 21.8 0 0 1-8.6-8.6 22.2 22.2 0 0 1-3.2-12c0-4.4 1-8 3.2-11.9a21 21 0 0 1 8.6-8.6c3.8-2.3 7.5-3.2 12-3.2 4.4 0 8 1 11.9 3.2a21 21 0 0 1 8.6 8.6c2.3 3.8 3.2 7.5 3.2 12 0 4.4-1 8-3.2 11.9a21.8 21.8 0 0 1-8.6 8.6 22.2 22.2 0 0 1-11.9 3.2Z"/><path fill="none" d="M544.9 669h47.6v47.6H545z"/><path fill="#FFF" d="M473.7 669c-12 0-23.9 11.8-23.9 23.7v178.2a25.6 25.6 0 0 0 23.9 23.8c11.8 0 23.8-12 23.8-23.8V692.7c0-11.9-12-23.7-23.8-23.7Z"/><path fill="none" d="M449.8 669h47.8v225.8h-47.8z"/><path fill="none" d="M450 669h47.6v225.7h-47.7z"/><path fill="#FFF" d="M390.5 736.5c-12 0-23.9 11.8-23.9 23.7v95.1a25.6 25.6 0 0 0 23.9 23.9c11.8 0 23.8-12 23.8-23.9v-95c0-12-12-23.8-23.8-23.8Z"/><path fill="none" d="M366.6 736.5h48v142.9h-48z"/><path fill="none" d="M366.7 736.5h47.7v142.7h-47.7z"/><path fill="#FFF" d="M568.6 752c-12 0-23.8 11.9-23.8 23.8v95.1a25.6 25.6 0 0 0 23.8 23.8c11.9 0 23.8-12 23.8-23.8v-95.1c0-11.9-12-23.8-23.8-23.8Z"/><path fill="none" d="M544.8 752h47.8v142.8h-47.8z"/><path fill="none" d="M544.9 752h47.6v142.7H545z"/><path fill="#FFF" d="M651.8 653.4c-12 0-23.9 11.9-23.9 23.7v178.2a25.6 25.6 0 0 0 23.9 23.9c11.9 0 23.8-12 23.8-23.9V677.1c0-11.8-12-23.7-23.8-23.7Z"/><path fill="none" d="M628 653.4h47.8v225.9H628z"/><path fill="none" d="M628 653.4h47.7v225.8H628z"/><path fill="#FFF" d="M951.6 1086c-25 0-46.4-5.7-68-18.3a129.9 129.9 0 0 1-50-49.8 130.5 130.5 0 0 1-18.3-68.2c0-25 5.8-46.4 18.3-68a129.5 129.5 0 0 1 50-50 130 130 0 0 1 68-18.3 131 131 0 0 1 68.2 18.3 129.9 129.9 0 0 1 49.8 50c12.6 21.6 18.3 43 18.3 68 0 25.1-5.7 46.4-18.3 68.1a129.9 129.9 0 0 1-49.8 50 130.5 130.5 0 0 1-68.2 18.2Z"/><path fill="none" d="M815.3 813.4H1088v272.7H815.3z"/><path fill="gold" d="M888.5 1059a120.8 120.8 0 0 1-46.3-46.2 121 121 0 0 1-16.9-63c0-23.3 5.3-43 16.9-63.2a121.7 121.7 0 0 1 46.3-46.3 121 121 0 0 1 63.1-16.9c23.3 0 43 5.3 63.1 16.9a120.8 120.8 0 0 1 46.3 46.3 120.7 120.7 0 0 1 16.9 63.1c0 23.3-5.3 43-17 63.1a119.9 119.9 0 0 1-46.2 46.3 120.1 120.1 0 0 1-63 16.9c-23.3 0-43-5.3-63.2-17ZM900 860.3a98.2 98.2 0 0 0-37.9 37.9 98.3 98.3 0 0 0-13.9 51.6c0 19 4.4 35.2 14 51.7a98.2 98.2 0 0 0 37.8 37.8 98.2 98.2 0 0 0 51.6 13.8 99 99 0 0 0 51.7-13.8 98.2 98.2 0 0 0 37.8-37.8 98.5 98.5 0 0 0 13.8-51.7c0-19-4.3-35.1-13.8-51.6a99.6 99.6 0 0 0-37.8-37.9 99.7 99.7 0 0 0-51.7-13.9c-19 0-35.2 4.4-51.6 14Z"/><path fill="none" d="M825.2 823.3h252.9v252.9H825.2z"/><path fill="gold" d="M953.2 937.6c-6 0-11.8 5.9-11.8 11.8 0 6 5.8 11.9 11.8 11.9h76.1c6 0 12-6 12-11.9 0-6-6-11.8-12-11.8h-76.1Z"/><path fill="none" d="M941.4 937.6h99.9v23.8h-100z"/><path fill="none" d="M941.5 937.6h99.8v23.7h-99.8z"/><path fill="gold" d="M941.5 949.4c0 6 5.8 11.8 11.8 11.8 5.9 0 11.8-5.8 11.8-11.8v-76.2c0-5.9-5.9-11.8-11.8-11.8-6 0-11.8 6-11.8 11.8v76.2Z"/><path fill="none" d="M941.4 861.4h23.8v99.9h-23.8z"/><path fill="none" d="M941.4 861.4H965v99.9h-23.7z"/></svg>